<svg width="48" height="48" viewBox="0 0 48 48" fill="none" xmlns="http://www.w3.org/2000/svg">
<circle cx="41.5" cy="6.5" r="4.5" fill="#24536A"/>
<path d="M25.7627 18C28.1027 18 30 19.8973 30 22.2373V43.7627C30 46.1027 28.1027 48 25.7627 48H17V31H0V22.2373C0 19.8973 1.89727 18 4.2373 18H25.7627ZM19 29H19.0908V28.9092H19V29Z" fill="#F16D71"/>
<path opacity="0.8" d="M30 18H48V25.8213C48 28.6813 45.6813 31 42.8213 31H22.1787C19.3187 31 17 28.6813 17 25.8213V5.17871C17 2.31867 19.3187 0 22.1787 0H30V18ZM28.2725 19.7275H28.3662V19.6338H28.2725V19.7275Z" fill="#2DB7C1"/>
<path opacity="0.8" d="M25.7627 18C28.1027 18 30 19.8973 30 22.2373V31H22.1787C19.3187 31 17 28.6813 17 25.8213V18H25.7627ZM19 29H19.0908V28.9092H19V29ZM28.2725 19.7275H28.3662V19.6338H28.2725V19.7275Z" fill="#24536A"/>
</svg>
